<svg width="760" height="540" viewBox="0 0 760 540" fill="none" xmlns="http://www.w3.org/2000/svg">
  <defs>
    <linearGradient id="accent" x1="0" y1="0" x2="760" y2="540" gradientUnits="userSpaceOnUse">
      <stop stop-color="#2D6BFF" stop-opacity="0.95"/>
      <stop offset="1" stop-color="#2BE7C6" stop-opacity="0.85"/>
    </linearGradient>
  </defs>
  <rect width="760" height="540" rx="24" fill="rgba(0,0,0,0.18)"/>
  <rect x="26" y="26" width="708" height="488" rx="22" fill="rgba(255,255,255,0.04)" stroke="rgba(255,255,255,0.12)"/>

  <!-- Top bar -->
  <rect x="52" y="54" width="170" height="24" rx="12" fill="rgba(255,255,255,0.10)"/>
  <rect x="238" y="54" width="470" height="24" rx="12" fill="rgba(45,107,255,0.18)"/>

  <!-- Room upload card -->
  <rect x="52" y="100" width="656" height="160" rx="18" fill="rgba(11,31,58,0.55)" stroke="rgba(255,255,255,0.10)"/>
  <rect x="74" y="126" width="210" height="26" rx="13" fill="rgba(255,255,255,0.12)"/>
  <rect x="74" y="162" width="612" height="90" rx="16" fill="rgba(255,255,255,0.06)" stroke="rgba(255,255,255,0.10)"/>
  <rect x="98" y="186" width="120" height="18" rx="9" fill="rgba(43,231,198,0.18)"/>
  <rect x="98" y="214" width="320" height="18" rx="9" fill="rgba(255,255,255,0.08)"/>

  <!-- Recommendation pills -->
  <rect x="52" y="276" width="656" height="70" rx="18" fill="rgba(0,0,0,0.18)" stroke="rgba(255,255,255,0.08)"/>
  <rect x="78" y="300" width="190" height="22" rx="11" fill="rgba(45,107,255,0.18)"/>
  <rect x="284" y="300" width="240" height="22" rx="11" fill="rgba(255,255,255,0.10)"/>
  <rect x="540" y="300" width="160" height="22" rx="11" fill="rgba(43,231,198,0.16)"/>

  <!-- Product cards -->
  <rect x="52" y="364" width="304" height="124" rx="18" fill="rgba(255,255,255,0.04)" stroke="rgba(255,255,255,0.10)"/>
  <rect x="374" y="364" width="334" height="124" rx="18" fill="rgba(255,255,255,0.04)" stroke="rgba(255,255,255,0.10)"/>
  <rect x="78" y="390" width="140" height="20" rx="10" fill="rgba(255,255,255,0.10)"/>
  <rect x="78" y="420" width="220" height="16" rx="8" fill="rgba(255,255,255,0.08)"/>
  <rect x="78" y="446" width="120" height="28" rx="14" fill="url(#accent)" fill-opacity="0.35"/>

  <rect x="398" y="390" width="160" height="20" rx="10" fill="rgba(255,255,255,0.10)"/>
  <rect x="398" y="420" width="260" height="16" rx="8" fill="rgba(255,255,255,0.08)"/>
  <rect x="398" y="446" width="160" height="28" rx="14" fill="url(#accent)" fill-opacity="0.35"/>
</svg>

